<?xml version="1.0" encoding="UTF-8"?>
<svg id="Camada_1" xmlns="http://www.w3.org/2000/svg" version="1.1" xmlns:xlink="http://www.w3.org/1999/xlink" viewBox="0 0 1137.4 175.2">
  <!-- Generator: Adobe Illustrator 29.8.1, SVG Export Plug-In . SVG Version: 2.1.1 Build 2)  -->
  <defs>
    <style>
      .st0 {
        fill: url(#Gradiente_sem_nome_2);
      }

      .st1 {
        fill: #fff;
      }

      .st2 {
        fill: url(#Gradiente_sem_nome);
      }
    </style>
    <linearGradient id="Gradiente_sem_nome" data-name="Gradiente sem nome" x1="-5583.7" y1="-1238" x2="-5448.2" y2="-1336.4" gradientTransform="translate(-4664.9 -2921.7) rotate(-135) scale(1 -1)" gradientUnits="userSpaceOnUse">
      <stop offset="0" stop-color="#fff"/>
      <stop offset=".2" stop-color="#fbfcff"/>
      <stop offset=".3" stop-color="#eff6ff"/>
      <stop offset=".4" stop-color="#dbebff"/>
      <stop offset=".6" stop-color="#c0ddff"/>
      <stop offset=".7" stop-color="#9dc9ff"/>
      <stop offset=".9" stop-color="#71b2ff"/>
      <stop offset="1" stop-color="#3f97ff"/>
      <stop offset="1" stop-color="#3d96ff"/>
    </linearGradient>
    <linearGradient id="Gradiente_sem_nome_2" data-name="Gradiente sem nome 2" x1="-5399.6" y1="-1224" x2="-5524.8" y2="-1131" gradientTransform="translate(-4664.9 -2921.7) rotate(-135) scale(1 -1)" gradientUnits="userSpaceOnUse">
      <stop offset="0" stop-color="#fff"/>
      <stop offset=".2" stop-color="#fbfcff"/>
      <stop offset=".3" stop-color="#eff6ff"/>
      <stop offset=".4" stop-color="#dbebff"/>
      <stop offset=".6" stop-color="#c0ddff"/>
      <stop offset=".7" stop-color="#9dc9ff"/>
      <stop offset=".9" stop-color="#71b2ff"/>
      <stop offset="1" stop-color="#3f97ff"/>
      <stop offset="1" stop-color="#3d96ff"/>
    </linearGradient>
  </defs>
  <g>
    <path class="st1" d="M0,51.4h0,0S51.4,0,51.4,0h72.6l.3.3,51,51,.3.3-.3.3v72h0s-51.3,51.3-51.3,51.3H51.4L.3,124.2l-.3-.3s0-72.5,0-72.5ZM37.7,108.5l29.2,29.2h41.5l29.4-29.4h0v-41.2l.2-.2-.2-.2-29.2-29.2-.2-.2h-41.5l-29.3,29.3h0v41.5l.2.2h0Z"/>
    <polygon class="st2" points="137.8 108.4 137.8 161.5 175.3 123.9 175.2 51.3 161.5 37.6 108.4 37.5 137.8 66.9 137.8 108.4"/>
    <polygon class="st0" points="37.5 66.9 37.5 13.8 0 51.3 0 123.9 13.8 137.7 66.9 137.7 37.5 108.3 37.5 66.9"/>
  </g>
  <g>
    <path class="st1" d="M289,139.8c-11.6,0-21.7-2.1-30.1-6.2-8.4-4.2-15.4-9.6-20.9-16.4-5.5-6.8-9.5-14-12.2-21.7-2.7-7.7-4-15.2-4-22.3v-3.9c0-7.7,1.4-15.5,4.1-23.4,2.7-7.8,6.9-15,12.5-21.5,5.6-6.5,12.6-11.7,20.9-15.6,8.4-3.9,18.3-5.9,29.7-5.9s21.3,2,29.7,5.9,15.4,9.1,20.9,15.6c5.6,6.5,9.7,13.6,12.5,21.5,2.7,7.8,4.1,15.6,4.1,23.4v3.9c0,7.1-1.3,14.6-4,22.3-2.7,7.7-6.7,15-12.2,21.7-5.5,6.8-12.4,12.2-20.9,16.4-8.4,4.2-18.5,6.2-30.1,6.2ZM289,123.8c7.6,0,14.5-1.4,20.6-4.3,6.1-2.9,11.3-6.7,15.6-11.7,4.3-4.9,7.5-10.5,9.8-16.8,2.3-6.2,3.4-12.8,3.4-19.7s-1.1-14-3.4-20.3c-2.3-6.3-5.5-11.9-9.8-16.7s-9.5-8.6-15.6-11.3c-6.1-2.7-13-4.1-20.6-4.1s-14.5,1.4-20.6,4.1c-6.1,2.7-11.3,6.5-15.6,11.3s-7.5,10.4-9.8,16.7c-2.3,6.3-3.4,13.1-3.4,20.3s1.1,13.5,3.4,19.7c2.3,6.2,5.5,11.8,9.8,16.8,4.3,4.9,9.5,8.8,15.6,11.7,6.1,2.9,13,4.3,20.6,4.3Z"/>
    <path class="st1" d="M423.3,139.8c-8.2,0-15.3-1.4-21.3-4.3-6-2.9-11-6.7-14.9-11.5-3.9-4.8-6.9-10.1-8.8-16-2-5.8-2.9-11.6-2.9-17.5v-3.2c0-6.1,1-12,2.9-17.8,2-5.8,4.9-11.1,8.9-15.8,4-4.7,8.9-8.5,14.9-11.3,5.9-2.9,12.9-4.3,20.9-4.3s15.1,1.5,21.5,4.5c6.4,3,11.5,7.2,15.3,12.6,3.9,5.4,6,11.8,6.5,19.2h-16.4c-.8-5.9-3.6-10.9-8.2-14.9-4.6-4-10.9-6-18.7-6s-12.4,1.5-16.9,4.6c-4.5,3.1-7.9,7.3-10.2,12.7-2.3,5.3-3.4,11.4-3.4,18.2s1.1,12.5,3.4,17.9c2.3,5.4,5.7,9.7,10.2,12.8,4.6,3.2,10.3,4.7,17.2,4.7s10-.9,13.9-2.9c3.9-1.9,7.1-4.5,9.4-7.7,2.4-3.2,3.8-6.8,4.3-10.9h16.4c-.4,7.5-2.5,14-6.5,19.4-4,5.5-9.2,9.7-15.7,12.7-6.5,3-13.8,4.5-21.8,4.5Z"/>
    <path class="st1" d="M476.6,54.3v-12.8h65.6v12.8h-65.6ZM527.5,137.7c-7.1,0-13.3-1-18.5-3-5.2-2-9.2-5.5-11.9-10.4-2.8-4.9-4.2-11.6-4.2-20.1V12.6h16.4v93.8c0,5.1,1.4,9.1,4.2,11.9,2.8,2.8,6.7,4.2,11.9,4.2h16.8v15.3h-14.6Z"/>
    <path class="st1" d="M609.5,139.8c-8.3,0-15.6-1.4-21.9-4.3-6.3-2.9-11.6-6.6-16-11.3-4.3-4.7-7.6-10-9.8-15.8-2.2-5.8-3.3-11.8-3.3-17.8v-3.2c0-6.1,1.1-12,3.4-17.9,2.3-5.9,5.6-11.2,10-15.9,4.4-4.7,9.7-8.4,16-11.2,6.3-2.8,13.5-4.2,21.6-4.2s15.3,1.4,21.6,4.2c6.3,2.8,11.6,6.5,16,11.2,4.4,4.7,7.7,10,10,15.9,2.3,5.9,3.4,11.9,3.4,17.9v3.2c0,6.1-1.1,12-3.3,17.8-2.2,5.8-5.5,11.1-9.8,15.8-4.3,4.7-9.7,8.5-16,11.3-6.3,2.9-13.6,4.3-21.9,4.3ZM609.5,124.5c7.1,0,13.2-1.6,18.3-4.7,5-3.1,8.9-7.4,11.6-12.7,2.7-5.3,4-11.3,4-18s-1.4-12.8-4.1-18.2c-2.7-5.3-6.6-9.6-11.7-12.7-5.1-3.1-11.1-4.6-18.1-4.6s-12.9,1.5-18,4.6c-5.1,3.1-9,7.3-11.8,12.7-2.7,5.3-4.1,11.4-4.1,18.2s1.3,12.7,4,18,6.5,9.6,11.6,12.7c5.1,3.2,11.1,4.7,18.3,4.7Z"/>
    <path class="st1" d="M674.8,136.6L721.7,6.5h29.6l48.3,130.1h-18l-43.7-118.7,8.6,4.3h-21l9.1-4.3-42.2,118.7h-17.5ZM702.8,97.8l5.9-15.7h56.2l5.9,15.7h-67.9Z"/>
    <path class="st1" d="M821,172.3V41.4h13.5v41.2l-3.2-.4c.6-10.2,2.8-18.6,6.5-25,3.7-6.5,8.6-11.3,14.7-14.4,6.1-3.1,12.7-4.6,19.8-4.6s13.2,1.3,18.8,3.9c5.6,2.6,10.5,6.2,14.5,10.7,4,4.5,7.1,9.7,9.3,15.7,2.1,5.9,3.2,12.2,3.2,18.9v3.2c0,6.7-1.1,13-3.4,18.9-2.3,5.9-5.4,11.2-9.5,15.7-4.1,4.5-9,8.1-14.6,10.7-5.6,2.6-11.9,3.9-18.6,3.9s-13.3-1.5-19.4-4.5c-6.2-3-11.3-7.8-15.3-14.4-4-6.7-6.4-15.4-7-26.2l7.8,14.3v63.3h-17.1ZM869.3,124.9c6.4,0,12-1.5,16.8-4.5,4.8-3,8.4-7.2,11.1-12.7,2.6-5.4,3.9-11.6,3.9-18.6s-1.3-13.4-3.9-18.7c-2.6-5.3-6.3-9.5-11.1-12.6-4.8-3-10.3-4.5-16.8-4.5s-11,1.3-15.9,3.8c-4.9,2.6-8.8,6.2-11.7,11.1-2.9,4.8-4.4,10.6-4.4,17.4v8.2c0,6.5,1.5,12.1,4.5,16.8,3,4.6,6.9,8.2,11.8,10.7,4.9,2.5,10.1,3.7,15.7,3.7Z"/>
    <path class="st1" d="M943.8,172.3V41.4h13.5v41.2l-3.2-.4c.6-10.2,2.8-18.6,6.5-25,3.7-6.5,8.6-11.3,14.7-14.4,6.1-3.1,12.7-4.6,19.8-4.6s13.2,1.3,18.8,3.9c5.6,2.6,10.5,6.2,14.5,10.7,4,4.5,7.1,9.7,9.3,15.7,2.1,5.9,3.2,12.2,3.2,18.9v3.2c0,6.7-1.1,13-3.4,18.9-2.3,5.9-5.4,11.2-9.5,15.7-4.1,4.5-9,8.1-14.6,10.7-5.6,2.6-11.9,3.9-18.6,3.9s-13.3-1.5-19.4-4.5c-6.2-3-11.3-7.8-15.3-14.4-4-6.7-6.4-15.4-7-26.2l7.8,14.3v63.3h-17.1ZM992.1,124.9c6.4,0,12-1.5,16.8-4.5,4.8-3,8.4-7.2,11.1-12.7,2.6-5.4,3.9-11.6,3.9-18.6s-1.3-13.4-3.9-18.7c-2.6-5.3-6.3-9.5-11.1-12.6-4.8-3-10.3-4.5-16.8-4.5s-11,1.3-15.9,3.8c-4.9,2.6-8.8,6.2-11.7,11.1-2.9,4.8-4.4,10.6-4.4,17.4v8.2c0,6.5,1.5,12.1,4.5,16.8,3,4.6,6.9,8.2,11.8,10.7,4.9,2.5,10.1,3.7,15.7,3.7Z"/>
    <path class="st1" d="M1097.8,139.5c-12.5,0-22.1-2.7-29-8-6.8-5.3-10.4-12.7-10.6-21.9h16c.2,3.7,2.1,7.2,5.6,10.4,3.5,3.3,9.5,4.9,17.9,4.9s13.4-1.5,17.5-4.5c4-3,6.1-6.7,6.1-11.1s-1.5-7-4.5-9.2c-3-2.2-7.8-3.7-14.4-4.4l-10.3-1.1c-9-.9-16.4-3.7-22.1-8.1-5.7-4.5-8.6-10.7-8.6-18.8s1.5-11.3,4.6-15.6c3.1-4.3,7.4-7.7,12.8-10,5.5-2.3,11.8-3.5,18.9-3.5,10.7,0,19.4,2.4,26,7.1,6.7,4.8,10.1,11.8,10.3,21.2h-16c-.1-3.8-1.9-7-5.3-9.7-3.4-2.7-8.4-4-15.1-4s-11.7,1.4-15.2,4.1c-3.4,2.7-5.2,6.2-5.2,10.3s1.2,6.4,3.7,8.6c2.4,2.1,6.4,3.5,12,4.1l10.3,1.1c10.2,1.1,18.4,3.9,24.6,8.5,6.2,4.6,9.3,11,9.3,19.3s-1.7,11.2-5.1,15.8c-3.4,4.6-8.1,8.1-14,10.7-5.9,2.6-12.8,3.8-20.5,3.8Z"/>
  </g>
</svg>